<mxfile host="app.diagrams.net" modified="2021-09-15T18:46:58.062Z" agent="5.0 (Windows NT 10.0; Win64; x64) AppleWebKit/537.36 (KHTML, like Gecko) Chrome/93.0.4577.63 Safari/537.36" etag="h4zFp93xDu6nwbCkIuNe" version="15.2.7" type="github" pages="2">
  <diagram id="kgpKYQtTHZ0yAKxKKP6v" name="Publica-Suscribe (Eventos)">
    <mxGraphModel dx="1030" dy="880" grid="1" gridSize="10" guides="1" tooltips="1" connect="1" arrows="1" fold="1" page="1" pageScale="1" pageWidth="850" pageHeight="1100" math="0" shadow="0">
      <root>
        <mxCell id="0" />
        <mxCell id="1" parent="0" />
        <mxCell id="jqihHIYIfp3A_7bVBwHt-2" value="C1" style="whiteSpace=wrap;html=1;aspect=fixed;" vertex="1" parent="1">
          <mxGeometry x="100" y="330" width="80" height="80" as="geometry" />
        </mxCell>
        <mxCell id="jqihHIYIfp3A_7bVBwHt-3" value="C2" style="whiteSpace=wrap;html=1;aspect=fixed;" vertex="1" parent="1">
          <mxGeometry x="330" y="360" width="80" height="80" as="geometry" />
        </mxCell>
        <mxCell id="jqihHIYIfp3A_7bVBwHt-4" value="BUS DE EVENTOS" style="rounded=0;whiteSpace=wrap;html=1;direction=south;" vertex="1" parent="1">
          <mxGeometry x="200" y="470" width="60" height="120" as="geometry" />
        </mxCell>
        <mxCell id="jqihHIYIfp3A_7bVBwHt-7" value="" style="endArrow=classic;html=1;exitX=0.65;exitY=1;exitDx=0;exitDy=0;exitPerimeter=0;entryX=0.25;entryY=1;entryDx=0;entryDy=0;" edge="1" parent="1" source="jqihHIYIfp3A_7bVBwHt-2" target="jqihHIYIfp3A_7bVBwHt-4">
          <mxGeometry width="50" height="50" relative="1" as="geometry">
            <mxPoint x="200" y="540" as="sourcePoint" />
            <mxPoint x="218" y="490" as="targetPoint" />
          </mxGeometry>
        </mxCell>
        <mxCell id="jqihHIYIfp3A_7bVBwHt-11" value="" style="endArrow=classic;html=1;exitX=1;exitY=0.5;exitDx=0;exitDy=0;" edge="1" parent="1" source="jqihHIYIfp3A_7bVBwHt-14">
          <mxGeometry width="50" height="50" relative="1" as="geometry">
            <mxPoint x="200" y="530" as="sourcePoint" />
            <mxPoint x="330" y="410" as="targetPoint" />
          </mxGeometry>
        </mxCell>
        <mxCell id="jqihHIYIfp3A_7bVBwHt-13" value="&lt;br&gt;&lt;b&gt;Publicar-Susbribir: Basado en Eventos.&lt;/b&gt;&lt;br&gt;&lt;br&gt;&lt;br&gt;En esta arquitectura los componentes &lt;b&gt;publican&lt;/b&gt; o escriben eventos en el &lt;b&gt;Bus de Eventos &lt;/b&gt;y este notifica a otros componentes que estan &lt;b&gt;suscritos&lt;/b&gt; y reciben esos eventos.&lt;br&gt;Cada vez que se vende un producto el app ecommerce publica o notifica al bus de eventos para que el bus redireccione al otro componente suscrito que escucha esos eventos especificos." style="text;html=1;strokeColor=none;fillColor=none;spacing=5;spacingTop=-20;whiteSpace=wrap;overflow=hidden;rounded=0;" vertex="1" parent="1">
          <mxGeometry x="60" y="110" width="400" height="140" as="geometry" />
        </mxCell>
        <mxCell id="jqihHIYIfp3A_7bVBwHt-14" value="" style="rhombus;whiteSpace=wrap;html=1;" vertex="1" parent="1">
          <mxGeometry x="260" y="480" width="40" height="30" as="geometry" />
        </mxCell>
        <mxCell id="jqihHIYIfp3A_7bVBwHt-16" value="&lt;b&gt;Aplicación de Reporting&lt;/b&gt;" style="text;html=1;strokeColor=none;fillColor=none;align=center;verticalAlign=middle;whiteSpace=wrap;rounded=0;" vertex="1" parent="1">
          <mxGeometry x="330" y="320" width="120" height="30" as="geometry" />
        </mxCell>
        <mxCell id="jqihHIYIfp3A_7bVBwHt-17" value="&lt;b&gt;App Ecommerce&lt;/b&gt;" style="text;html=1;strokeColor=none;fillColor=none;align=center;verticalAlign=middle;whiteSpace=wrap;rounded=0;" vertex="1" parent="1">
          <mxGeometry x="100" y="300" width="90" height="20" as="geometry" />
        </mxCell>
      </root>
    </mxGraphModel>
  </diagram>
  <diagram id="GBnTnIxgGejn3nCO1ZPz" name="C.I (Servicios)">
    <mxGraphModel dx="828" dy="310" grid="1" gridSize="10" guides="1" tooltips="1" connect="1" arrows="1" fold="1" page="1" pageScale="1" pageWidth="827" pageHeight="1169" math="0" shadow="0">
      <root>
        <mxCell id="3tGRgAvyZc_ysEtgxryx-0" />
        <mxCell id="3tGRgAvyZc_ysEtgxryx-1" parent="3tGRgAvyZc_ysEtgxryx-0" />
        <mxCell id="3tGRgAvyZc_ysEtgxryx-7" value="&lt;b&gt;ESB&lt;/b&gt;" style="rounded=1;whiteSpace=wrap;html=1;" vertex="1" parent="3tGRgAvyZc_ysEtgxryx-1">
          <mxGeometry x="104" y="170" width="300" height="60" as="geometry" />
        </mxCell>
        <mxCell id="3tGRgAvyZc_ysEtgxryx-8" value="C1" style="whiteSpace=wrap;html=1;aspect=fixed;" vertex="1" parent="3tGRgAvyZc_ysEtgxryx-1">
          <mxGeometry x="130" y="270" width="60" height="60" as="geometry" />
        </mxCell>
        <mxCell id="3tGRgAvyZc_ysEtgxryx-9" value="C3" style="whiteSpace=wrap;html=1;aspect=fixed;" vertex="1" parent="3tGRgAvyZc_ysEtgxryx-1">
          <mxGeometry x="314" y="270" width="60" height="60" as="geometry" />
        </mxCell>
        <mxCell id="3tGRgAvyZc_ysEtgxryx-10" value="C2" style="whiteSpace=wrap;html=1;aspect=fixed;" vertex="1" parent="3tGRgAvyZc_ysEtgxryx-1">
          <mxGeometry x="224" y="270" width="60" height="60" as="geometry" />
        </mxCell>
        <mxCell id="3tGRgAvyZc_ysEtgxryx-11" value="&lt;h1&gt;&lt;b style=&quot;font-size: 12px&quot;&gt;Arquitectura Orientada a Servicios&lt;/b&gt;&lt;/h1&gt;&lt;div&gt;ESB(Enterprise Service Bus): Bus inteligente programable, a través de su programación va a saber que hacer.&lt;/div&gt;" style="text;html=1;strokeColor=none;fillColor=none;spacing=5;spacingTop=-20;whiteSpace=wrap;overflow=hidden;rounded=0;" vertex="1" parent="3tGRgAvyZc_ysEtgxryx-1">
          <mxGeometry x="104" y="20" width="396" height="120" as="geometry" />
        </mxCell>
        <mxCell id="3tGRgAvyZc_ysEtgxryx-16" value="" style="endArrow=classic;html=1;" edge="1" parent="3tGRgAvyZc_ysEtgxryx-1" source="3tGRgAvyZc_ysEtgxryx-8">
          <mxGeometry width="50" height="50" relative="1" as="geometry">
            <mxPoint x="110" y="280" as="sourcePoint" />
            <mxPoint x="160" y="230" as="targetPoint" />
          </mxGeometry>
        </mxCell>
        <mxCell id="3tGRgAvyZc_ysEtgxryx-17" value="" style="endArrow=classic;html=1;exitX=0.226;exitY=1.013;exitDx=0;exitDy=0;exitPerimeter=0;" edge="1" parent="3tGRgAvyZc_ysEtgxryx-1" source="3tGRgAvyZc_ysEtgxryx-7">
          <mxGeometry width="50" height="50" relative="1" as="geometry">
            <mxPoint x="200" y="300" as="sourcePoint" />
            <mxPoint x="172" y="270" as="targetPoint" />
          </mxGeometry>
        </mxCell>
        <mxCell id="3tGRgAvyZc_ysEtgxryx-18" value="" style="endArrow=classic;html=1;" edge="1" parent="3tGRgAvyZc_ysEtgxryx-1">
          <mxGeometry width="50" height="50" relative="1" as="geometry">
            <mxPoint x="247.76" y="270" as="sourcePoint" />
            <mxPoint x="247.76" y="230" as="targetPoint" />
          </mxGeometry>
        </mxCell>
        <mxCell id="3tGRgAvyZc_ysEtgxryx-19" value="" style="endArrow=classic;html=1;exitX=0.226;exitY=1.013;exitDx=0;exitDy=0;exitPerimeter=0;" edge="1" parent="3tGRgAvyZc_ysEtgxryx-1">
          <mxGeometry width="50" height="50" relative="1" as="geometry">
            <mxPoint x="259.55999999999995" y="230.77999999999997" as="sourcePoint" />
            <mxPoint x="259.76" y="270" as="targetPoint" />
          </mxGeometry>
        </mxCell>
        <mxCell id="3tGRgAvyZc_ysEtgxryx-22" value="" style="endArrow=classic;html=1;" edge="1" parent="3tGRgAvyZc_ysEtgxryx-1">
          <mxGeometry width="50" height="50" relative="1" as="geometry">
            <mxPoint x="337.76" y="270" as="sourcePoint" />
            <mxPoint x="337.76" y="230" as="targetPoint" />
          </mxGeometry>
        </mxCell>
        <mxCell id="3tGRgAvyZc_ysEtgxryx-23" value="" style="endArrow=classic;html=1;exitX=0.226;exitY=1.013;exitDx=0;exitDy=0;exitPerimeter=0;" edge="1" parent="3tGRgAvyZc_ysEtgxryx-1">
          <mxGeometry width="50" height="50" relative="1" as="geometry">
            <mxPoint x="349.55999999999995" y="230.77999999999997" as="sourcePoint" />
            <mxPoint x="349.76" y="270" as="targetPoint" />
          </mxGeometry>
        </mxCell>
        <mxCell id="3tGRgAvyZc_ysEtgxryx-24" value="Usuario" style="shape=umlActor;verticalLabelPosition=bottom;verticalAlign=top;html=1;" vertex="1" parent="3tGRgAvyZc_ysEtgxryx-1">
          <mxGeometry x="145" y="380" width="30" height="60" as="geometry" />
        </mxCell>
        <mxCell id="3tGRgAvyZc_ysEtgxryx-26" value="" style="endArrow=classic;html=1;entryX=0.5;entryY=1;entryDx=0;entryDy=0;" edge="1" parent="3tGRgAvyZc_ysEtgxryx-1" source="3tGRgAvyZc_ysEtgxryx-24" target="3tGRgAvyZc_ysEtgxryx-8">
          <mxGeometry width="50" height="50" relative="1" as="geometry">
            <mxPoint x="140" y="390" as="sourcePoint" />
            <mxPoint x="190" y="340" as="targetPoint" />
          </mxGeometry>
        </mxCell>
      </root>
    </mxGraphModel>
  </diagram>
</mxfile>
